<svg xmlns="http://www.w3.org/2000/svg" version="1.1" xmlns:xlink="http://www.w3.org/1999/xlink" xmlns:svgjs="http://svgjs.dev/svgjs" width="60.64" height="60.63"><svg id="SvgjsSvg1009" xmlns="http://www.w3.org/2000/svg" width="60.64" height="60.63" version="1.1" viewBox="0 0 60.64 60.63">
  <!-- Generator: Adobe Illustrator 29.3.1, SVG Export Plug-In . SVG Version: 2.1.0 Build 151)  -->
  <defs>
    <style>
      .st0 {
        fill: #8ec1c1;
      }
    </style>
  </defs>
  <path id="SvgjsPath1008" class="st0" d="M60.64,5.27v50.09c0,2.91-2.36,5.27-5.27,5.27H5.28c-2.92,0-5.28-2.36-5.28-5.27V5.27C0,2.36,2.36,0,5.28,0h50.09c2.91,0,5.27,2.36,5.27,5.27Z"></path>
  <g id="SvgjsG1007">
    <path d="M55.7,42.83c-1.52.76-2.74,1.08-3.72.96-1.31-.16-2.08-1.3-2.35-1.79-1.46-2.61-.48-6.08.54-8.8.77-2.07,1.68-4.01,2.7-5.79.22-.39.46-.78.69-1.17.91-1.52,1.85-3.09,2.46-4.94.93-2.86.69-5.51-.7-7.47-1.63-2.34-4.72-3.38-7.86-2.67-2,.45-3.77,1.5-5.34,2.42-.3.18-.59.35-.89.52l-.47.27c-1.14.65-2.24,1.28-3.35,1.84-.08-.23-.16-.45-.24-.68-1.83-4.87-6.4-8.92-11.6-7.23-2.53.82-4.27,2.74-4.76,5.26-.53,2.71.51,5.54,2.72,7.39,2.52,2.13,5.98,2.79,9.96,1.97.06,1.33.02,2.68-.05,4-.22,4.12-.55,8.88-1.69,13.23-.47,1.77-2.15,6.24-4.31,5.71-.55-.13-.75-.37-.88-.61-.61-1.08-.43-3.58.46-6.35.08-.27.17-.54.26-.82.66-1.97,1.48-4.43.95-6.94-.59-2.85-3.27-4.69-6.36-4.38-2.59.26-4.49,1.82-6.02,3.08l-.38.31c-.06.05-.13.1-.19.15-.28-2.61-1.59-4.83-3.6-6.03-1.34-.8-2.9-.98-4.38-.52-1.64.51-3.06,1.79-3.81,3.42-1.08,2.39-.8,4.95.8,7.05,1.06,1.4,2.61,2.42,4.31,2.93-.85,1.5-1.84,2.78-2.6,3.67-1.68,1.96-3.76,3.44-6,4.3v5.25c3.7-1,7.15-3.2,9.79-6.3,1.6-1.86,3.39-4.37,4.49-7.24,1.81-.75,3.28-1.94,4.34-2.8l.4-.33c.4-.32.78-.64,1.16-.92l.2.47.05.14c.21.61.7,1.08,1.32,1.28l.26.08c.01.01.44.13,1.02.19-.14.52-.32,1.04-.49,1.57-.1.29-.2.59-.29.87-.96,3.03-1.75,7.28-.05,10.31.86,1.54,2.26,2.59,4.04,3.03,3.58.88,8.18-1.1,10.34-9.3,1.27-4.81,1.62-9.87,1.85-14.24.1-1.85.14-3.86-.03-5.9,1.7-.77,3.3-1.69,4.85-2.57l.46-.27c.32-.18.63-.37.95-.55.94-.56,1.91-1.12,2.83-1.5.38,1.62,2.41,3.82,2.95,4.12l.44.23c-.44.97-1.01,1.93-1.61,2.93-.25.41-.49.83-.73,1.24-1.16,2.02-2.19,4.22-3.06,6.54-1.39,3.73-2.68,8.58-.22,12.99,1.36,2.44,3.59,4.01,6.13,4.32,1.99.23,4.13-.24,6.56-1.47.92-.46,1.82-.96,2.69-1.5v-6.04c-1.49,1.13-3.16,2.18-4.94,3.08ZM26.74,17.13c-.8-.68-1.2-1.7-1.02-2.61.14-.72.61-1.21,1.4-1.47.27-.09.53-.13.79-.13,2.02,0,3.84,2.41,4.58,4.37.08.22.16.45.23.67-2.03.45-4.37.52-5.98-.83ZM10.56,32.99l-.12.09c-1.99.18-3.85-3.07-2.62-4.69,2.01-2.52,3.72,3.41,2.74,4.6Z"></path>
    <path d="M45.812,23.596c.104-.829-.188-1.678-.786-2.273s-1.449-.886-2.275-.776c-1.369.179-2.333,1.435-2.153,2.804.083.634.396,1.181.845,1.567.39.449.938.762,1.574.843.107.014.214.021.318.021,1.24,0,2.316-.922,2.478-2.185Z"></path>
    <path d="M17.615,37.719c-1.381,0-2.5,1.119-2.5,2.5v.13c0,1.381,1.119,2.5,2.5,2.5s2.5-1.119,2.5-2.5v-.13c0-1.381-1.119-2.5-2.5-2.5Z"></path>
  </g>
</svg><style>@media (prefers-color-scheme: light) { :root { filter: none; } }
@media (prefers-color-scheme: dark) { :root { filter: none; } }
</style></svg>