<?xml version="1.0" encoding="UTF-8"?>
<svg id="Capa_1" xmlns="http://www.w3.org/2000/svg" width="183.095" height="56.301" version="1.1" viewBox="0 0 183.095 56.301">
  <!-- Generator: Adobe Illustrator 29.3.1, SVG Export Plug-In . SVG Version: 2.1.0 Build 151)  -->
  <defs>
    <style>
      .st0 {
        fill: #201e1f;
      }
    </style>
  </defs>
  <path class="st0" d="M182.52,34.786c-1.272-5.158-4.726-8.999-8.116-12.346.85-1.172,1.717-2.389,2.388-3.804.889-1.803,1.182-3.983.803-5.987-.427-2.254-1.641-4.123-3.421-5.268-1.886-1.274-4.276-1.498-6.403-.597-2.174.921-3.712,2.842-4.121,5.144-.705,3.396.647,7.099,3.811,10.434l.038.039c.23.232.464.464.698.695-2.487,3.94-6.191,8.709-10.79,11.391l-.135.085c-2.084,1.409-4.565,1.83-6.473,1.1-1.499-.573-2.494-1.794-2.957-3.627-.031-.132-.06-.265-.086-.399.709-.355,1.496-.655,2.307-.965,1.238-.473,2.519-.962,3.763-1.711,2.83-1.67,5.781-5.028,4.799-9.01l-.027-.1c-.619-2.113-2.192-3.602-4.317-4.083-2.508-.569-5.383.372-7.171,2.342-2.737,2.856-4.308,7.03-4.359,11.171-.66.582-1.305,1.217-1.931,1.834-1.413,1.391-2.875,2.83-4.376,3.529l-.041.019c-1.352.661-2.537.699-3.521.114-1.094-.65-1.871-2.023-2.119-3.687,1.136-1.297,2.217-2.702,3.23-4.201,2.533-3.75,4.463-7.868,5.616-11.884l15.289-1.171c1.323-.101,2.313-1.256,2.212-2.579-.102-1.323-1.254-2.313-2.579-2.212l-13.902,1.065c.06-.477.108-.949.141-1.416l.003-.051c.192-3.85-1.407-6.868-4.073-7.688-2.503-.77-5.13.626-7.023,3.736l-.012.019c-1.219,2.044-1.939,4.212-2.405,6.425l-5.195.398c-1.323.101-2.313,1.256-2.212,2.579.097,1.26,1.149,2.219,2.393,2.219.062,0,.124-.002.186-.007l4.121-.316c-.068.683-.13,1.366-.19,2.045-.056.631-.113,1.259-.175,1.881l-.006.072c-.034.491-.071.983-.107,1.476-.19,2.569-.385,5.215-.262,7.892-2.606,2.654-5.449,4.644-8.323,5.789-1.937.553-3.708.492-5.127-.142,7.457-5.771,8.148-10.636,7.176-13.913l-.031-.097c-.992-2.888-4.226-4.5-7.222-3.606-2.588.721-4.842,2.756-6.341,5.721-1.912,3.723-2.139,7.696-.741,10.959-.233.141-.468.281-.708.422-1.569.87-3.75,1.629-5.279.346-1.704-1.43-2.2-4.781-1.155-7.797l.035-.11c.819-2.787,2.078-5.598,3.85-8.593l.016-.028c.139-.241.28-.484.422-.727,1.117-1.913,2.383-4.081,2.699-6.637.361-2.715-.578-5.12-2.577-6.6-2.201-1.629-5.304-1.843-8.099-.561l-.047.022c-1.436.697-2.851,1.502-4.22,2.281-1.354.77-2.68,1.524-4.006,2.172-.112-.371-.234-.741-.366-1.11l-.024-.064c-1.213-3.104-3.385-5.473-5.962-6.511-2.227-.979-4.903-.746-6.997.61-1.971,1.277-3.103,3.309-3.108,5.578-.029,1.996.765,3.915,2.237,5.406,1.738,1.761,4.277,2.811,6.799,2.812,1.273.032,2.488-.087,3.662-.319.2,3.326-.166,6.792-.524,10.186l-.101.96-.097.698c-.518,3.733-1.053,7.593-3.281,10.088-.715.794-1.519,1.13-2.151.899-.639-.234-1.042-1.015-1.077-2.091l-.015-.204c-.19-1.602.352-3.367.925-5.237.6-1.959,1.221-3.984,1.155-6.19l-.007-.13c-.177-2.104-1.312-3.766-3.114-4.559-2.173-.957-5.039-.526-7.161,1.071-.801.536-1.519,1.125-2.213,1.695-.137.112-.273.224-.408.334-.23-2.751-1.67-5.026-4.043-6.331l-.202-.111-.219-.071c-2.299-.739-4.683-.008-6.221,1.91-1.711,2.132-1.978,5.092-.677,7.396.971,1.936,2.762,3.284,4.822,3.851-.571.997-1.266,2.019-2.064,3.111-.211.289-5.268,7.057-13.197,5.395-1.308-.274-2.327-1.114-3.029-2.494-.298-.586-.527-1.248-.689-1.955,1.644-.297,3.154-.698,4.268-1.23,1.727-.814,3.287-2.052,4.393-3.487,1.368-1.776,2.018-3.786,1.878-5.815-.137-1.981-1.132-3.791-2.664-4.842-1.458-1-3.129-1.277-4.834-.8-2.951.826-5.526,3.934-6.67,6.472-.768,1.704-1.234,3.59-1.398,5.489-1.747.138-3.466.19-4.793.154.064-.452.12-.911.168-1.378.615-6.033-.4-11.829-2.648-15.125-1.758-2.577-4.445-4.12-7.373-4.232-2.932-.112-5.723,1.205-7.661,3.614-.636.763-1.225,1.65-1.769,2.636-.038-1.688-.139-3.088-.328-3.937l-.034-.133c-.756-2.665-2.417-3.303-3.34-3.446-2.723-.422-4.809,2.244-5.58,3.41-.732,1.107-.428,2.597.679,3.329,1.107.732,2.597.428,3.329-.679.13-.196.26-.37.384-.523.359,3.927-.214,14.969-.547,18.56-.971,7.377-1.494,14.705-1.554,21.78l-.004.474c-.002.217-.004.391-.004.511-.009,1.861,1.398,2.571,2.346,2.594,0,0,.003,0,.008,0,.148,0,2.353-.045,2.465-2.52.007-.156.017-.394.03-.727l.015-.25c.497-8.505,1.815-31.098,7.606-38.016l.033-.041c.977-1.22,2.342-1.887,3.743-1.836,1.41.054,2.684.813,3.587,2.138,1.855,2.72,2.39,8.279,1.652,13.303-4.451-.458-9.789-.536-12.834,3.552-1.984,2.664-1.473,6.979,1.139,9.62,1.265,1.28,2.862,1.984,4.619,2.039,1.867.058,3.784-.62,5.701-2.015,2.218-1.614,3.978-4.391,5.111-7.955.292.023.578.042.855.053h.031c1.221.037,3.128.002,5.211-.155.248,1.267.645,2.469,1.193,3.546,1.375,2.704,3.562,4.44,6.326,5.019,8.726,1.831,15.459-3.703,18.061-7.261,1.351-1.847,2.757-3.911,3.688-6.309,1.805-.696,3.232-1.866,4.494-2.901.65-.533,1.263-1.036,1.887-1.449l.141-.101c.162-.125.34-.23.523-.317-.056.382-.025.781.11,1.164.263.756.872,1.35,1.644,1.597,0,0,0,0,0,0-.169.679-.384,1.38-.604,2.098-.653,2.13-1.391,4.54-1.114,7.108.133,3.012,1.745,5.437,4.227,6.344,2.502.914,5.326.073,7.376-2.203,3.21-3.593,3.876-8.397,4.464-12.636l.102-.731.115-1.082c.425-4.027.859-8.147.451-12.231,1.877-.833,3.669-1.852,5.436-2.857,1.291-.734,2.514-1.427,3.741-2.033.107.66.491,1.274,1.228,2.269,1.01,1.365,1.311,1.588,1.686,1.795l.474.26c-.386.852-.889,1.716-1.409,2.606-.146.25-.291.498-.433.745-1.962,3.319-3.369,6.466-4.3,9.618-1.69,4.94-.614,10.276,2.626,12.995,2.793,2.343,6.702,2.401,10.727.159l.045-.026c.403-.236.795-.471,1.174-.705,2.795,2.331,6.729,3.004,10.873,1.781l.196-.067c2.672-1.047,5.302-2.672,7.776-4.777.787,1.71,1.99,3.108,3.507,4.011,2.389,1.421,5.253,1.45,8.065.083,2.052-.96,3.761-2.553,5.277-4.037,1.053,2.457,2.894,4.272,5.313,5.197,3.326,1.272,7.462.673,10.813-1.562,4.231-2.486,8.196-6.541,11.809-12.069,2.829,2.847,5.256,5.744,6.157,9.43l.017.066c1.191,4.334-.252,8.27-3.86,10.529-3.335,2.089-8.577,2.552-12.769-1.123-.998-.875-2.515-.775-3.39.223-.875.998-.775,2.515.223,3.39,5.237,4.592,12.667,5.227,18.487,1.582,5.413-3.391,7.692-9.458,5.952-15.841ZM150.598,21.426l.06-.064c.514-.574,1.381-.943,2.13-.943.15,0,.296.015.433.046.406.092.62.289.752.696.28,1.312-1.139,2.821-2.593,3.677l-.023.014c-.88.532-1.912.926-3.006,1.343-.13.049-.26.099-.392.15.485-1.88,1.392-3.623,2.641-4.919ZM78.809,10.202h-.037s-.037,0-.037,0h-.016c-1.228,0-2.555-.542-3.385-1.382-.578-.586-.865-1.249-.853-1.971v-.045c0-.8.498-1.292.916-1.563.745-.482,1.714-.575,2.468-.237l.102.043c1.354.535,2.552,1.912,3.29,3.78.13.365.247.734.353,1.106-.918.195-1.848.295-2.801.268ZM19.962,37.662c-1.757,1.279-3.129,1.441-4.076.483-.97-.981-1.2-2.703-.702-3.372,1.063-1.428,3.104-1.831,5.367-1.831.802,0,1.631.051,2.455.124-.74,2.012-1.757,3.659-3.044,4.595ZM39.535,25.177c.687-1.524,2.328-3.467,3.585-3.819.114-.032.214-.049.308-.049.176,0,.33.058.511.182.318.218.555.705.59,1.212.136,1.972-1.732,3.78-3.536,4.63-.56.267-1.364.501-2.308.699.169-1,.452-1.974.85-2.856ZM59.437,24.292c-.929-.137-1.799-.619-2.214-1.475l-.088-.165c-.386-.66-.17-1.545.23-2.044.257-.321.502-.401.697-.401.036,0,.071.003.103.007,1.149.751,1.381,1.956,1.366,2.859-.007.414-.038.82-.094,1.219ZM98.24,9.019c.032-.074.069-.149.111-.222-.041.073-.078.147-.111.222ZM109.325,31.314c-.458-1.799-.162-3.926.901-5.997.879-1.738,2.105-2.933,3.362-3.277l.066-.019c.106-.032.215-.047.324-.047.422,0,.833.227.972.571.669,2.417-1.344,5.499-5.626,8.769ZM133.786,7.19c.721-1.18,1.311-1.554,1.519-1.616.233.184.75,1.094.67,2.814-.05.688-.139,1.393-.256,2.108l-3.411.261c.354-1.266.824-2.47,1.478-3.568ZM134.449,15.412c-.89,2.562-2.131,5.154-3.669,7.615.028-.391.057-.786.086-1.183.036-.488.072-.975.106-1.462.062-.626.119-1.258.176-1.893.085-.946.171-1.899.278-2.847l3.023-.232ZM172.479,16.521l-.022.044c-.395.836-.933,1.645-1.525,2.476-.001-.001-.002-.003-.004-.004-.968-1.024-3.108-3.631-2.57-6.153l.019-.099c.119-.702.593-1.291,1.268-1.577.3-.127,1.081-.366,1.849.16l.069.046c1.546.983,1.723,3.479.915,5.105Z"/>
  <path class="st0" d="M94.486,15.435c.103-.798-.179-1.617-.754-2.191s-1.394-.855-2.191-.751c-1.316.171-2.244,1.376-2.073,2.692.079.612.382,1.14.816,1.512.373.433.901.735,1.513.814.104.013.207.02.309.02,1.19,0,2.224-.884,2.38-2.096Z"/>
  <path class="st0" d="M66.658,28.508c-1.327,0-2.402,1.076-2.402,2.402v.128c0,1.327,1.076,2.402,2.402,2.402s2.402-1.076,2.402-2.402v-.128c0-1.327-1.076-2.402-2.402-2.402Z"/>
</svg>